Coordinates
version=1
nRows=10
nColumns=40
inDegrees=yes

Units are S.I. units (second, meters, Newtons, ...)
Angles are in degrees.

endheader
time	pelvis_tilt	pelvis_list	pelvis_rotation	pelvis_tx	pelvis_ty	pelvis_tz	hip_flexion_r	hip_adduction_r	hip_rotation_r	knee_angle_r	knee_angle_r_beta	ankle_angle_r	subtalar_angle_r	mtp_angle_r	hip_flexion_l	hip_adduction_l	hip_rotation_l	knee_angle_l	knee_angle_l_beta	ankle_angle_l	subtalar_angle_l	mtp_angle_l	lumbar_extension	lumbar_bending	lumbar_rotation	arm_flex_r	arm_add_r	arm_rot_r	elbow_flex_r	pro_sup_r	wrist_flex_r	wrist_dev_r	arm_flex_l	arm_add_l	arm_rot_l	elbow_flex_l	pro_sup_l	wrist_flex_l	wrist_dev_l
     51.32342857	     -3.49088733	     -2.71451282	     -3.48347764	      1.09392214	      0.93045660	      0.43610000	     22.50421414	     -3.46013734	    -11.44118136	     13.07564449	     13.07564449	      1.59152202	      6.78410784	      5.15847999	      1.99213063	     -3.85028987	    -14.12946622	     11.98847716	     11.98847716	     13.98626815	     -4.02293645	     -8.42627224	     -8.87685003	      2.96867360	      1.43330773	    -16.54714224	    -11.66801219	     -0.11204512	     25.68117367	     45.98684775	      0.00000000	      0.00000000	     19.57845985	    -18.32513968	    -13.32514903	     67.06273029	     47.15964647	      0.00000000	      0.00000000
     51.33685714	     -3.57394587	     -2.57682044	     -3.53179611	      1.09504861	      0.92929298	      0.43842601	     22.34067447	     -3.28760572	    -11.42094330	     13.04045257	     13.04045257	      1.82247913	      6.91576252	      5.03473981	      1.59699294	     -3.82920422	    -14.12962388	     11.96768435	     11.96768435	     14.33308960	     -4.05607628	     -8.54693259	     -8.61741931	      2.90132327	      1.46209779	    -16.63607932	    -11.65825443	     -0.11998294	     25.66948618	     45.98773591	      0.00000000	      0.00000000	     19.37564902	    -18.25419649	    -13.35439078	     67.06348937	     47.16107630	      0.00000000	      0.00000000
     51.35028571	     -3.65911120	     -2.47799275	     -3.53277319	      1.09623998	      0.92835852	      0.44084744	     22.11922392	     -3.11915297	    -11.44606302	     13.12480676	     13.12480676	      1.93766865	      6.93955081	      4.94545318	      1.22654737	     -3.86601507	    -14.11616153	     11.98079213	     11.98079213	     14.55934363	     -4.08440898	     -8.61270726	     -8.30347335	      2.85078928	      1.53150565	    -16.59276351	    -11.67141765	     -0.12632287	     25.69195505	     45.98791343	      0.00000000	      0.00000000	     19.23968160	    -18.18959635	    -13.36004143	     67.05032230	     47.16051492	      0.00000000	      0.00000000
     51.36371429	     -3.36635929	     -2.40240845	     -3.59981447	      1.09803122	      0.92778565	      0.44346395	     21.56657955	     -2.98462831	    -11.34537831	     13.49394566	     13.49394566	      0.80327159	      6.70286060	     -0.42586937	      0.26598743	     -3.94020557	    -14.62050322	     11.85221224	     11.85221224	     15.62831977	     -2.92193834	     -7.21935071	     -8.48868522	      2.88200076	      1.07689956	    -16.07778484	    -11.89066865	     -0.13207280	     25.79557164	     46.02238825	      0.00000000	      0.00000000	     17.89186572	    -17.80997533	    -14.91437192	     67.91742217	     47.31297889	      0.00000000	      0.00000000
     51.37714286	     -3.27296391	     -2.43067457	     -3.62157496	      1.09945869	      0.92715353	      0.44620077	     21.43968013	     -2.79846008	    -11.10202187	     14.43242237	     14.43242237	      1.23755706	      6.27970754	     -1.01609620	     -0.32534864	     -4.12378408	    -14.62842776	     11.87451842	     11.87451842	     15.96673487	     -2.90833104	     -7.08206653	     -8.44342088	      3.01067891	      1.14181777	    -15.65104814	    -12.03887106	     -0.14122932	     25.91362441	     46.02491999	      0.00000000	      0.00000000	     17.43618244	    -17.61221067	    -14.88714207	     67.61211362	     47.30523333	      0.00000000	      0.00000000
     51.39057143	     -3.25604456	     -2.35633717	     -3.64613920	      1.10081285	      0.92647645	      0.44904548	     21.55606905	     -2.70528438	    -10.49627807	     15.65369712	     15.65369712	      1.62473977	      5.21076583	     -2.03054155	     -0.73492675	     -4.23813967	    -14.67194288	     12.07572627	     12.07572627	     16.46371368	     -2.79404491	     -6.47325160	     -8.29019800	      3.02564702	      1.06808214	    -14.94128668	    -12.14143164	     -0.14110996	     26.09939066	     46.02846084	      0.00000000	      0.00000000	     16.83811729	    -17.42270695	    -14.99343328	     67.06661612	     47.30401972	      0.00000000	      0.00000000
     51.40400000	     -3.13930606	     -2.41627303	     -3.63758774	      1.10222772	      0.92611190	      0.45201734	     21.49370621	     -2.48544316	     -9.97086465	     16.78003641	     16.78003641	      2.05511190	      4.18034590	     -2.86468198	     -1.14312167	     -4.53595808	    -14.67462505	     12.50544098	     12.50544098	     16.98960885	     -2.79667098	     -5.80598756	     -8.26975762	      3.20236347	      1.03974054	    -14.13497589	    -12.34764951	     -0.15637962	     26.29104502	     46.03302368	      0.00000000	      0.00000000	     16.23129342	    -17.16459847	    -15.07867904	     66.48339967	     47.29940953	      0.00000000	      0.00000000
     51.41742857	     -3.10398208	     -2.43535413	     -3.62256424	      1.10348828	      0.92576194	      0.45509267	     21.52824258	     -2.26683913	     -9.27717412	     17.86871439	     17.86871439	      2.51284570	      2.88283120	     -3.60985416	     -1.29555817	     -4.85185494	    -14.66011060	     13.23611064	     13.23611064	     17.61338274	     -2.80175843	     -4.82682688	     -8.18431205	      3.32014480	      0.93127519	    -13.09449979	    -12.51521355	     -0.16642617	     26.53149084	     46.03776602	      0.00000000	      0.00000000	     15.52628546	    -16.89047057	    -15.20557694	     65.63495373	     47.29328334	      0.00000000	      0.00000000
     51.43085714	     -2.92159047	     -2.53006418	     -3.62858089	      1.10494082	      0.92598022	      0.45824892	     21.14579885	     -2.01407716	     -9.01846292	     18.50440934	     18.50440934	      3.05890159	      2.54435513	     -3.95249466	     -1.70550360	     -5.21259945	    -14.60231774	     13.76339055	     13.76339055	     17.76182314	     -3.02251585	     -4.62046466	     -8.26220671	      3.50624490	      1.18876214	    -12.13350170	    -12.69062997	     -0.18949779	     26.82779997	     46.03687884	      0.00000000	      0.00000000	     14.79898451	    -16.25920202	    -15.03999472	     65.15921668	     47.26805634	      0.00000000	      0.00000000
     51.44428571	     -2.91409788	     -2.58272216	     -3.52480594	      1.10587920	      0.92593921	      0.46157090	     21.16237742	     -1.68039562	     -8.15574388	     19.41556131	     19.41556131	      3.49927390	      0.68561752	     -4.41305279	     -1.12874151	     -5.84461349	    -14.70495828	     15.92605677	     15.92605677	     19.79433240	     -2.45495688	     -0.60957365	     -8.12916579	      3.65487125	      0.86979962	    -10.58041844	    -12.89458532	     -0.07522340	     26.62612724	     46.07060627	      0.00000000	      0.00000000	     14.42572976	    -15.98851417	    -15.63808258	     62.95553293	     47.28692236	      0.00000000	      0.00000000
